<svg version="1.1" xmlns="http://www.w3.org/2000/svg" xmlns:xlink="http://www.w3.org/1999/xlink" width="10.12564" height="6.12501" viewBox="0,0,10.12564,6.12501"><g transform="translate(-234.93802,-176.9376)"><g data-paper-data="{&quot;isPaintingLayer&quot;:true}" fill="#1f689a" fill-rule="nonzero" stroke="none" stroke-width="0.5" stroke-linecap="butt" stroke-linejoin="miter" stroke-miterlimit="10" stroke-dasharray="" stroke-dashoffset="0" style="mix-blend-mode: normal"><path d="M239.97947,183.06254c-1.69133,-0.01134 -3.05324,-1.39163 -3.0419,-3.08297c0.01134,-1.69133 1.39163,-3.05324 3.08297,-3.0419c1.69133,0.01134 3.05324,1.39163 3.0419,3.08297c-0.01134,1.69133 -1.39163,3.05324 -3.08297,3.0419z"/><path d="M237.48707,181.92081c-0.79389,-0.00532 -1.43165,-0.87707 -1.42448,-1.94709c0.00717,-1.07003 0.65657,-1.93314 1.45046,-1.92782c0.79389,0.00532 1.43165,0.87707 1.42448,1.94709c-0.00717,1.07003 -0.65657,1.93314 -1.45046,1.92782z"/><path d="M236.36796,181.03828c-0.79389,-0.00532 -1.43409,-0.51331 -1.42992,-1.13461c0.00417,-0.62131 0.65112,-1.12066 1.44501,-1.11534c0.79389,0.00532 1.43409,0.51331 1.42992,1.13461c-0.00417,0.62131 -0.65112,1.12066 -1.44501,1.11534z"/><path d="M241.06332,179.88224c0.00717,-1.07003 0.65657,-1.93314 1.45046,-1.92782c0.79389,0.00532 1.43165,0.87707 1.42448,1.94709c-0.00717,1.07003 -0.65657,1.93314 -1.45046,1.92782c-0.79389,-0.00532 -1.43165,-0.87707 -1.42448,-1.94709z" data-paper-data="{&quot;index&quot;:null}"/><path d="M242.18871,179.82728c0.00417,-0.62131 0.65112,-1.12066 1.44501,-1.11534c0.79389,0.00532 1.43409,0.51331 1.42992,1.13461c-0.00417,0.62131 -0.65112,1.12066 -1.44501,1.11534c-0.79389,-0.00532 -1.43409,-0.51331 -1.42992,-1.13461z" data-paper-data="{&quot;index&quot;:null}"/></g></g></svg>