<svg version="1.1" xmlns="http://www.w3.org/2000/svg" xmlns:xlink="http://www.w3.org/1999/xlink" width="6.125" height="10.125" viewBox="0,0,6.125,10.125"><g transform="translate(-236.9375,-174.9375)"><g data-paper-data="{&quot;isPaintingLayer&quot;:true}" fill="#33adff" fill-rule="nonzero" stroke="none" stroke-width="0.5" stroke-linecap="butt" stroke-linejoin="miter" stroke-miterlimit="10" stroke-dasharray="" stroke-dashoffset="0" style="mix-blend-mode: normal"><path d="M236.9375,180c0,-1.69137 1.37113,-3.0625 3.0625,-3.0625c1.69137,0 3.0625,1.37113 3.0625,3.0625c0,1.69137 -1.37113,3.0625 -3.0625,3.0625c-1.69137,0 -3.0625,-1.37113 -3.0625,-3.0625z"/><path d="M238.0625,177.5c0,-0.79391 0.86745,-1.4375 1.9375,-1.4375c1.07005,0 1.9375,0.64359 1.9375,1.4375c0,0.79391 -0.86745,1.4375 -1.9375,1.4375c-1.07005,0 -1.9375,-0.64359 -1.9375,-1.4375z"/><path d="M238.9375,176.375c0,-0.79391 0.50368,-1.4375 1.125,-1.4375c0.62132,0 1.125,0.64359 1.125,1.4375c0,0.79391 -0.50368,1.4375 -1.125,1.4375c-0.62132,0 -1.125,-0.64359 -1.125,-1.4375z"/><path d="M240.125,181.0625c1.07005,0 1.9375,0.64359 1.9375,1.4375c0,0.79391 -0.86745,1.4375 -1.9375,1.4375c-1.07005,0 -1.9375,-0.64359 -1.9375,-1.4375c0,-0.79391 0.86745,-1.4375 1.9375,-1.4375z" data-paper-data="{&quot;index&quot;:null}"/><path d="M240.1875,182.1875c0.62132,0 1.125,0.64359 1.125,1.4375c0,0.79391 -0.50368,1.4375 -1.125,1.4375c-0.62132,0 -1.125,-0.64359 -1.125,-1.4375c0,-0.79391 0.50368,-1.4375 1.125,-1.4375z" data-paper-data="{&quot;index&quot;:null}"/></g></g></svg>